<svg width="100" height="100" viewBox="0 0 100 100" fill="none" xmlns="http://www.w3.org/2000/svg">
<rect width="100" height="100" rx="10" fill="#CFDDFF"/>
<path d="M68.3333 32.6667H68.3667M33.3333 17.6667H66.6667C75.8714 17.6667 83.3333 25.1287 83.3333 34.3334V67.6667C83.3333 76.8715 75.8714 84.3334 66.6667 84.3334H33.3333C24.1286 84.3334 16.6667 76.8715 16.6667 67.6667V34.3334C16.6667 25.1287 24.1286 17.6667 33.3333 17.6667ZM63.3333 48.9001C63.7447 51.6742 63.2709 54.5075 61.9792 56.9968C60.6875 59.4861 58.6438 61.5048 56.1388 62.7657C53.6337 64.0265 50.7948 64.4654 48.026 64.0199C45.2571 63.5743 42.6992 62.267 40.7161 60.284C38.7331 58.3009 37.4258 55.743 36.9802 52.9741C36.5347 50.2053 36.9735 47.3664 38.2344 44.8613C39.4953 42.3563 41.514 40.3125 44.0033 39.0209C46.4926 37.7292 49.3258 37.2554 52.1 37.6667C54.9297 38.0864 57.5495 39.405 59.5723 41.4278C61.5951 43.4506 62.9137 46.0703 63.3333 48.9001Z" stroke="white" stroke-width="6.66667" stroke-linecap="round" stroke-linejoin="round"/>
</svg>
