<svg width="100" height="100" viewBox="0 0 100 100" fill="none" xmlns="http://www.w3.org/2000/svg">
<rect width="100" height="100" rx="10" fill="#CFDDFF"/>
<path d="M23.3333 77.6666C21.5 77.6666 19.9306 77.0138 18.625 75.7083C17.3194 74.4027 16.6667 72.8332 16.6667 70.9999V30.9999C16.6667 29.1666 17.3194 27.5971 18.625 26.2916C19.9306 24.986 21.5 24.3333 23.3333 24.3333H76.6667C78.5 24.3333 80.0695 24.986 81.375 26.2916C82.6806 27.5971 83.3333 29.1666 83.3333 30.9999V70.9999C83.3333 72.8332 82.6806 74.4027 81.375 75.7083C80.0695 77.0138 78.5 77.6666 76.6667 77.6666H23.3333ZM50 54.3333L23.3333 37.6666V70.9999H76.6667V37.6666L50 54.3333ZM50 47.6666L76.6667 30.9999H23.3333L50 47.6666ZM23.3333 37.6666V30.9999V70.9999V37.6666Z" fill="white"/>
</svg>
