<svg width="100" height="100" viewBox="0 0 100 100" fill="none" xmlns="http://www.w3.org/2000/svg">
<rect width="100" height="100" rx="10" fill="#CFDDFF"/>
<path d="M83.3333 51.0001C83.3333 69.4096 68.4095 84.3334 50 84.3334M83.3333 51.0001C83.3333 32.5906 68.4095 17.6667 50 17.6667M83.3333 51.0001H16.6667M50 84.3334C31.5905 84.3334 16.6667 69.4096 16.6667 51.0001M50 84.3334C58.3376 75.2056 63.0758 63.36 63.3333 51.0001C63.0758 38.6402 58.3376 26.7946 50 17.6667M50 84.3334C41.6624 75.2056 36.9241 63.36 36.6667 51.0001C36.9241 38.6402 41.6624 26.7946 50 17.6667M16.6667 51.0001C16.6667 32.5906 31.5905 17.6667 50 17.6667" stroke="white" stroke-width="6.66667" stroke-linecap="round" stroke-linejoin="round"/>
</svg>
